HIERARCHY
ROOT Root
{
  OFFSET 0.0 0.0 0.0
  CHANNELS 6 Xposition Yposition Zposition Zrotation Yrotation Xrotation
  JOINT Hips
  {
    OFFSET 0.0 100.0 0.0
    CHANNELS 6 Xposition Yposition Zposition Zrotation Yrotation Xrotation
    JOINT Spine1
    {
      OFFSET -0.013727 5.003763 -0.053727
      CHANNELS 3 Zrotation Yrotation Xrotation
      JOINT Spine2
      {
        OFFSET -0.0 7.125301 -0.029825
        CHANNELS 3 Zrotation Yrotation Xrotation
        JOINT Chest
        {
          OFFSET -1e-06 7.550063 -0.815971
          CHANNELS 3 Zrotation Yrotation Xrotation
          JOINT Neck1
          {
            OFFSET -0.181677 26.311295 -0.553348
            CHANNELS 3 Zrotation Yrotation Xrotation
            JOINT Neck2
            {
              OFFSET -3e-06 7.709397 2.302585
              CHANNELS 3 Zrotation Yrotation Xrotation
              JOINT Head
              {
                OFFSET -5e-06 6.128916 1.953709
                CHANNELS 3 Zrotation Yrotation Xrotation
                JOINT HeadEnd
                {
                  OFFSET 0.003598 16.065403 -1.835379
                  CHANNELS 3 Zrotation Yrotation Xrotation
                }
                JOINT Jaw
                {
                  OFFSET 0.002637 0.475592 3.094941
                  CHANNELS 3 Zrotation Yrotation Xrotation
                }
                JOINT LeftEye
                {
                  OFFSET 3.206381 5.380205 7.586883
                  CHANNELS 3 Zrotation Yrotation Xrotation
                }
                JOINT RightEye
                {
                  OFFSET -3.22244 5.361869 7.558234
                  CHANNELS 3 Zrotation Yrotation Xrotation
                }
              }
            }
          }
          JOINT LeftShoulder
          {
            OFFSET 1.621652 23.237164 5.113413
            CHANNELS 3 Zrotation Yrotation Xrotation
            JOINT LeftArm
            {
              OFFSET 14.919846 2e-06 -5.502326
              CHANNELS 3 Zrotation Yrotation Xrotation
              JOINT LeftForeArm
              {
                OFFSET 28.739307 0.0 -0.002588
                CHANNELS 3 Zrotation Yrotation Xrotation
                JOINT LeftHand
                {
                  OFFSET 27.093981 -1e-06 0.002609
                  CHANNELS 3 Zrotation Yrotation Xrotation
                  JOINT LeftHandThumb1
                  {
                    OFFSET 2.276482 -1.392045 3.191413
                    CHANNELS 3 Zrotation Yrotation Xrotation
                    JOINT LeftHandThumb2
                    {
                      OFFSET 4.012836 -1.828127 1.641654
                      CHANNELS 3 Zrotation Yrotation Xrotation
                      JOINT LeftHandThumb3
                      {
                        OFFSET 2.798515 0.0 -3e-06
                        CHANNELS 3 Zrotation Yrotation Xrotation
                        JOINT LeftHandThumbEnd
                        {
                          OFFSET 3.180793 -4e-06 4e-06
                          CHANNELS 3 Zrotation Yrotation Xrotation
                        }
                      }
                    }
                  }
                  JOINT LeftHandIndex1
                  {
                    OFFSET 3.247555 -0.531998 2.296169
                    CHANNELS 3 Zrotation Yrotation Xrotation
                    JOINT LeftHandIndex2
                    {
                      OFFSET 6.364578 0.01206 0.1786
                      CHANNELS 3 Zrotation Yrotation Xrotation
                      JOINT LeftHandIndex3
                      {
                        OFFSET 3.662364 0.0 0.0
                        CHANNELS 3 Zrotation Yrotation Xrotation
                        JOINT LeftHandIndex4
                        {
                          OFFSET 2.329242 4e-06 4e-06
                          CHANNELS 3 Zrotation Yrotation Xrotation
                          JOINT LeftHandIndexEnd
                          {
                            OFFSET 2.759615 -0.180537 -0.113024
                            CHANNELS 3 Zrotation Yrotation Xrotation
                          }
                        }
                      }
                    }
                  }
                  JOINT LeftHandMiddle1
                  {
                    OFFSET 3.163495 0.240981 1.000332
                    CHANNELS 3 Zrotation Yrotation Xrotation
                    JOINT LeftHandMiddle2
                    {
                      OFFSET 6.19078 -0.259278 -1.002548
                      CHANNELS 3 Zrotation Yrotation Xrotation
                      JOINT LeftHandMiddle3
                      {
                        OFFSET 4.35652 -4e-06 -1e-06
                        CHANNELS 3 Zrotation Yrotation Xrotation
                        JOINT LeftHandMiddle4
                        {
                          OFFSET 2.996877 -8e-06 0.0
                          CHANNELS 3 Zrotation Yrotation Xrotation
                          JOINT LeftHandMiddleEnd
                          {
                            OFFSET 2.304287 -0.294569 -0.031741
                            CHANNELS 3 Zrotation Yrotation Xrotation
                          }
                        }
                      }
                    }
                  }
                  JOINT LeftHandRing1
                  {
                    OFFSET 2.882643 -0.053652 -0.322543
                    CHANNELS 3 Zrotation Yrotation Xrotation
                    JOINT LeftHandRing2
                    {
                      OFFSET 5.854541 -0.486202 -1.373841
                      CHANNELS 3 Zrotation Yrotation Xrotation
                      JOINT LeftHandRing3
                      {
                        OFFSET 4.350578 0.0 3e-06
                        CHANNELS 3 Zrotation Yrotation Xrotation
                        JOINT LeftHandRing4
                        {
                          OFFSET 2.651321 7e-06 2e-06
                          CHANNELS 3 Zrotation Yrotation Xrotation
                          JOINT LeftHandRingEnd
                          {
                            OFFSET 1.936105 0.077687 -7.1e-05
                            CHANNELS 3 Zrotation Yrotation Xrotation
                          }
                        }
                      }
                    }
                  }
                  JOINT LeftHandPinky1
                  {
                    OFFSET 2.8655 -0.310005 -1.600378
                    CHANNELS 3 Zrotation Yrotation Xrotation
                    JOINT LeftHandPinky2
                    {
                      OFFSET 5.087849 -1.331141 -1.77123
                      CHANNELS 3 Zrotation Yrotation Xrotation
                      JOINT LeftHandPinky3
                      {
                        OFFSET 3.070974 4e-06 0.0
                        CHANNELS 3 Zrotation Yrotation Xrotation
                        JOINT LeftHandPinky4
                        {
                          OFFSET 1.549672 0.0 1e-06
                          CHANNELS 3 Zrotation Yrotation Xrotation
                          JOINT LeftHandPinkyEnd
                          {
                            OFFSET 1.944893 -0.157802 0.057219
                            CHANNELS 3 Zrotation Yrotation Xrotation
                          }
                        }
                      }
                    }
                  }
                }
              }
            }
          }
          JOINT RightShoulder
          {
            OFFSET -1.380118 23.180309 5.214158
            CHANNELS 3 Zrotation Yrotation Xrotation
            JOINT RightArm
            {
              OFFSET -15.037196 1.2e-05 -5.545604
              CHANNELS 3 Zrotation Yrotation Xrotation
              JOINT RightForeArm
              {
                OFFSET -28.736639 2e-06 -0.002597
                CHANNELS 3 Zrotation Yrotation Xrotation
                JOINT RightHand
                {
                  OFFSET -27.133619 -0.0 0.002613
                  CHANNELS 3 Zrotation Yrotation Xrotation
                  JOINT RightHandThumb1
                  {
                    OFFSET -2.274032 -1.383988 3.163127
                    CHANNELS 3 Zrotation Yrotation Xrotation
                    JOINT RightHandThumb2
                    {
                      OFFSET -4.011429 -1.827466 1.640914
                      CHANNELS 3 Zrotation Yrotation Xrotation
                      JOINT RightHandThumb3
                      {
                        OFFSET -2.794935 -4e-06 -3e-06
                        CHANNELS 3 Zrotation Yrotation Xrotation
                        JOINT RightHandThumbEnd
                        {
                          OFFSET -3.183852 4e-06 1e-06
                          CHANNELS 3 Zrotation Yrotation Xrotation
                        }
                      }
                    }
                  }
                  JOINT RightHandIndex1
                  {
                    OFFSET -3.253266 -0.520057 2.282866
                    CHANNELS 3 Zrotation Yrotation Xrotation
                    JOINT RightHandIndex2
                    {
                      OFFSET -6.341917 0.012471 0.178266
                      CHANNELS 3 Zrotation Yrotation Xrotation
                      JOINT RightHandIndex3
                      {
                        OFFSET -3.654871 -8e-06 -0.0
                        CHANNELS 3 Zrotation Yrotation Xrotation
                        JOINT RightHandIndex4
                        {
                          OFFSET -2.327586 0.0 1e-06
                          CHANNELS 3 Zrotation Yrotation Xrotation
                          JOINT RightHandIndexEnd
                          {
                            OFFSET -2.76179 -0.180656 -0.113078
                            CHANNELS 3 Zrotation Yrotation Xrotation
                          }
                        }
                      }
                    }
                  }
                  JOINT RightHandMiddle1
                  {
                    OFFSET -3.168106 0.246593 1.00103
                    CHANNELS 3 Zrotation Yrotation Xrotation
                    JOINT RightHandMiddle2
                    {
                      OFFSET -6.180828 -0.258836 -1.000895
                      CHANNELS 3 Zrotation Yrotation Xrotation
                      JOINT RightHandMiddle3
                      {
                        OFFSET -4.348901 0.0 -0.0
                        CHANNELS 3 Zrotation Yrotation Xrotation
                        JOINT RightHandMiddle4
                        {
                          OFFSET -3.00024 -4e-06 -2e-06
                          CHANNELS 3 Zrotation Yrotation Xrotation
                          JOINT RightHandMiddleEnd
                          {
                            OFFSET -2.30252 -0.29437 -0.031706
                            CHANNELS 3 Zrotation Yrotation Xrotation
                          }
                        }
                      }
                    }
                  }
                  JOINT RightHandRing1
                  {
                    OFFSET -2.88569 -0.067952 -0.308858
                    CHANNELS 3 Zrotation Yrotation Xrotation
                    JOINT RightHandRing2
                    {
                      OFFSET -5.854198 -0.48613 -1.373731
                      CHANNELS 3 Zrotation Yrotation Xrotation
                      JOINT RightHandRing3
                      {
                        OFFSET -4.33881 -4e-06 -0.0
                        CHANNELS 3 Zrotation Yrotation Xrotation
                        JOINT RightHandRing4
                        {
                          OFFSET -2.654903 -4e-06 4e-06
                          CHANNELS 3 Zrotation Yrotation Xrotation
                          JOINT RightHandRingEnd
                          {
                            OFFSET -1.933568 0.077527 -5.2e-05
                            CHANNELS 3 Zrotation Yrotation Xrotation
                          }
                        }
                      }
                    }
                  }
                  JOINT RightHandPinky1
                  {
                    OFFSET -2.866425 -0.342796 -1.584145
                    CHANNELS 3 Zrotation Yrotation Xrotation
                    JOINT RightHandPinky2
                    {
                      OFFSET -5.091371 -1.332055 -1.772385
                      CHANNELS 3 Zrotation Yrotation Xrotation
                      JOINT RightHandPinky3
                      {
                        OFFSET -3.062664 -4e-06 1e-06
                        CHANNELS 3 Zrotation Yrotation Xrotation
                        JOINT RightHandPinky4
                        {
                          OFFSET -1.546529 4e-06 -2e-06
                          CHANNELS 3 Zrotation Yrotation Xrotation
                          JOINT RightHandPinkyEnd
                          {
                            OFFSET -1.945119 -0.157718 0.057211
                            CHANNELS 3 Zrotation Yrotation Xrotation
                          }
                        }
                      }
                    }
                  }
                }
              }
            }
          }
        }
      }
    }
    JOINT LeftLeg
    {
      OFFSET 10.043214 -8.434526 2.595655
      CHANNELS 3 Zrotation Yrotation Xrotation
      JOINT LeftShin
      {
        OFFSET -1e-06 -43.221752 -0.802913
        CHANNELS 3 Zrotation Yrotation Xrotation
        JOINT LeftFoot
        {
          OFFSET 1e-06 -42.155094 -3.481523
          CHANNELS 3 Zrotation Yrotation Xrotation
          JOINT LeftToeBase
          {
            OFFSET 0.0 -5.059472 13.231529
            CHANNELS 3 Zrotation Yrotation Xrotation
            JOINT LeftToeEnd
            {
              OFFSET -0.009607 -1.647619 6.513017
              CHANNELS 3 Zrotation Yrotation Xrotation
            }
          }
        }
      }
    }
    JOINT RightLeg
    {
      OFFSET -10.047278 -8.29526 2.620317
      CHANNELS 3 Zrotation Yrotation Xrotation
      JOINT RightShin
      {
        OFFSET 1e-06 -43.362206 -0.805556
        CHANNELS 3 Zrotation Yrotation Xrotation
        JOINT RightFoot
        {
          OFFSET 2e-06 -42.117393 -3.478398
          CHANNELS 3 Zrotation Yrotation Xrotation
          JOINT RightToeBase
          {
            OFFSET -0.0 -5.079609 13.284196
            CHANNELS 3 Zrotation Yrotation Xrotation
            JOINT RightToeEnd
            {
              OFFSET 0.009532 -1.634378 6.460591
              CHANNELS 3 Zrotation Yrotation Xrotation
            }
          }
        }
      }
    }
  }
}
MOTION
Frames: 5
Frame Time: 0.03333333333333333
0.0 0.0 0.0 0.0 -0.0 0.0 4.453156 95.590172 163.322342 5.296659 13.908446 0.338782 -1.114884 0.20353 5.518597 -0.521633 -1.44431 1.711795 -4.589808 38.691833 73.051254 8.51326 1.112241 5.221 -0.994905 -2.932112 -0.61265 1.930624 -3.150775 -1.066523 7.8e-05 -2.3e-05 6e-06 0.583968 0.010456 -0.028971 0.534835 -0.623292 -1.556813 0.613936 0.453297 -1.471985 -4.289688 -4.461815 3.492868 26.065981 3.803311 -29.501554 2.787241 -12.069939 0.460149 16.119892 -1.958871 8.247105 -5.882111 9.86129 0.70259 -10.93688 -0.360575 7.156211 -0.0 8.774829 -1e-06 -2.150527 2.633815 1.011823 -1.844033 2.498505 -2.50728 -10.16361 4.678947 4.621113 -20.97604 -3e-06 3e-06 -21.226301 2.451698 -3.594002 0.0 -7e-06 -0.0 -1.362682 2.240799 -0.746324 -21.334929 0.584911 3.008326 -13.821224 -2e-06 4e-06 -23.88719 -0.249078 -0.839482 -9.398574 1.194879 0.361468 -0.294025 1.679688 0.833256 -14.218218 0.093215 1.300583 -34.212078 -0.287561 0.967172 -20.033226 0.964537 1.212844 -0.0 1e-06 0.0 -3.440391 0.788234 0.501655 -15.9282 -3.16731 2.99971 -6.338831 -1e-06 2e-06 -18.123463 3.648183 -4.905673 -6e-06 1e-06 -2e-06 -2.925568 2.255554 5.121878 25.669641 68.058746 46.409077 1.544226 21.144249 -0.313045 -10.102933 23.48345 17.334732 2.243541 -5.255037 -3.180157 14.282896 -0.826593 6.952507 -4e-06 -12.690609 1e-06 4.558329 -4.443889 1.074815 1.665667 -1.955924 -2.878299 4.7278 -4.170588 4.993926 11.020529 4e-06 0.0 12.109055 -3.735717 -2.866783 -1e-06 -1e-06 -0.0 1.291985 -1.92855 -1.498089 14.800132 0.567469 3.86561 14.242573 -1.341737 -6.660657 19.631973 0.143929 -0.648241 9.990055 -1.65952 0.750674 0.353028 -1.511151 -0.03194 20.222799 3.684314 2.316633 18.787281 6e-06 2e-06 10.751631 -0.479868 1.397907 1e-06 1e-06 -0.0 3.273807 0.305947 -0.580111 21.48682 11.830381 2.266135 8.16293 2e-06 1e-06 18.399088 -3.798986 -4.940574 3e-06 -0.0 -1e-06 81.040604 -3.205963 7.874971 5.305579 -31.03661 -18.054361 -22.67844 -15.02076 -7.928323 -0.280969 -0.9836 -3.629315 -0.0 -0.0 2e-06 -22.616526 -13.945468 -4.352381 79.044205 -29.007404 25.885345 -2.494332 -3.061525 -8.882426 -0.345553 0.171382 2.678579 -0.0 0.0 -3e-06 
0.0 0.0 0.0 0.0 -0.0 0.0 4.468709 96.5093 165.420563 3.532345 10.024941 -0.500199 -0.806533 0.502515 4.102612 -0.233974 -0.86305 1.397977 -1.746882 40.960163 76.149452 6.677015 0.969261 2.585339 -0.807827 -2.289673 -0.445635 1.720131 -2.592466 -0.777249 7.7e-05 -2.2e-05 6e-06 0.386685 0.025823 -0.019073 0.336499 -0.388183 -1.031485 0.428024 0.305521 -0.963791 -3.599456 -2.680454 2.301241 31.965904 0.600531 -31.060442 2.607673 -7.212121 0.055106 15.389214 -0.707757 6.842047 -5.882107 9.861288 0.702589 -10.936877 -0.360578 7.156207 1e-06 8.774828 -2e-06 -2.284459 1.889689 0.369979 -1.844032 2.498505 -2.507276 -10.163604 4.678945 4.621109 -20.976034 -7e-06 5e-06 -21.226295 2.451696 -3.593998 0.0 -7e-06 -1e-06 -1.362682 2.240799 -0.746324 -21.334923 0.584905 3.008325 -13.82122 -5e-06 2e-06 -23.887184 -0.24908 -0.839479 -6.729104 1.005987 0.109774 -0.294024 1.679688 0.833256 -14.218214 0.093213 1.300581 -34.212063 -0.28757 0.967175 -20.033218 0.964535 1.212846 -0.0 1e-06 -0.0 -3.440389 0.788234 0.501656 -15.928192 -3.167314 2.999708 -6.338829 -2e-06 2e-06 -18.123453 3.648182 -4.90567 -6e-06 0.0 -2e-06 -1.748091 2.732912 3.838044 9.401046 64.82209 31.008421 1.669069 14.365592 0.19818 -4.975338 18.885662 13.867867 2.243543 -5.255037 -3.180157 14.282898 -0.826596 6.952501 -2e-06 -12.690605 0.0 3.760602 -3.313909 0.696223 1.665667 -1.955922 -2.878299 4.727801 -4.170588 4.993923 11.020532 2e-06 -2e-06 12.109058 -3.735716 -2.866784 -1e-06 -0.0 0.0 1.291986 -1.928549 -1.498089 14.800136 0.567468 3.865606 14.242579 -1.341736 -6.660658 19.631977 0.143926 -0.648247 7.258639 -1.283337 1.054723 0.353029 -1.511151 -0.03194 20.222801 3.684309 2.316628 18.787281 4e-06 -3e-06 10.751633 -0.479867 1.397905 -1e-06 -1e-06 -1e-06 3.273808 0.305947 -0.580111 21.486822 11.830374 2.266129 8.162931 3e-06 -2e-06 18.399092 -3.798982 -4.940578 3e-06 -1e-06 -1e-06 80.97126 -13.822521 9.576323 5.429596 -32.572826 -15.56601 -17.035463 -12.256323 -7.853594 -0.148793 -0.991717 -5.954774 1e-06 1e-06 3e-06 -23.227242 -10.652404 -3.449501 87.160706 -31.267582 23.860729 -1.899474 -1.847258 -7.930828 -0.212831 0.042603 2.237225 1e-06 1e-06 -2e-06 
0.0 0.0 0.0 0.0 -0.0 0.0 4.419316 97.579758 167.369476 2.018509 6.224313 -0.632694 -0.550976 0.468136 2.492625 -0.025651 -0.48359 0.874926 0.250451 42.979084 78.224518 4.852194 0.602867 0.814244 -0.602992 -1.399513 -0.301943 1.371783 -1.907246 -0.555223 7.7e-05 -2.3e-05 6e-06 0.170858 0.03446 -0.003632 0.139954 -0.186165 -0.613595 0.202888 0.191792 -0.566005 -2.461 -0.917704 1.444444 34.23328 -3.714925 -29.908354 1.656803 -2.089329 -0.127887 12.481064 0.441221 4.181226 -5.88211 9.861293 0.70259 -10.936881 -0.360577 7.156213 3e-06 8.774832 -2e-06 -1.937284 1.205925 0.083025 -1.844033 2.498507 -2.507279 -10.163608 4.678947 4.621112 -20.97604 -8e-06 2e-06 -21.226305 2.451695 -3.593999 0.0 -7e-06 -1e-06 -1.362682 2.240799 -0.746323 -21.334932 0.584905 3.008327 -13.821228 -5e-06 2e-06 -23.887192 -0.249083 -0.83948 -3.899536 0.655656 -0.027553 -0.294025 1.679689 0.833256 -14.218221 0.093212 1.300582 -34.212078 -0.28757 0.967175 -20.03323 0.964536 1.212849 0.0 2e-06 -1e-06 -3.440391 0.788233 0.501656 -15.928201 -3.167316 2.999713 -6.338832 -3e-06 1e-06 -18.123459 3.648181 -4.905674 -6e-06 2e-06 -2e-06 -0.786978 2.315985 2.57519 -1.732724 61.934673 17.207951 0.897741 7.050783 0.182713 -0.624651 11.02632 12.187696 2.243543 -5.255039 -3.180159 14.282901 -0.826595 6.952508 -1e-06 -12.690611 -0.0 2.220782 -1.738428 0.110182 1.665667 -1.955923 -2.878299 4.727804 -4.170589 4.993927 11.020535 2e-06 1e-06 12.109059 -3.735718 -2.866785 0.0 0.0 1e-06 1.291986 -1.928551 -1.49809 14.800139 0.567468 3.865611 14.242582 -1.341737 -6.660659 19.631983 0.143925 -0.648244 3.84789 -0.696663 0.924273 0.353029 -1.511152 -0.03194 20.222809 3.684311 2.316633 18.787289 4e-06 1e-06 10.751637 -0.479869 1.397907 -1e-06 -0.0 0.0 3.273809 0.305947 -0.58011 21.486832 11.83038 2.266136 8.162935 1e-06 0.0 18.399097 -3.798987 -4.940578 3e-06 -0.0 -1e-06 79.643097 -20.814589 12.046661 4.904252 -33.095608 -13.279471 -11.955945 -9.286516 -5.606172 -0.10564 -0.770928 -6.029766 1e-06 1e-06 1e-06 -23.183254 -7.262824 -3.220839 94.105614 -32.807617 22.206049 -1.351019 -0.712885 -6.173032 -0.087274 -0.019834 1.269932 0.0 1e-06 -1e-06 
0.0 0.0 0.0 0.0 -0.0 0.0 4.480923 98.7565 169.274658 0.75853 2.269567 -0.229911 -0.237174 0.33514 0.903687 0.015644 0.021231 0.312944 0.760775 44.769791 78.906227 2.279985 0.374514 -0.08327 -0.342842 -0.747343 -0.080471 0.699332 -1.052287 -0.324758 7.6e-05 -2.3e-05 6e-06 -0.003967 0.028939 0.010022 -0.013924 -0.038952 -0.231934 0.015636 0.095684 -0.242753 -1.102069 0.401564 0.88979 33.368752 -7.914137 -26.784328 0.927741 2.112305 -0.052192 5.986966 0.044384 0.648682 -5.882105 9.861284 0.702591 -10.936872 -0.360576 7.156207 2e-06 8.774824 -2e-06 -0.139401 0.488521 0.112105 -1.844032 2.498503 -2.507277 -10.163598 4.678944 4.62111 -20.976021 -6e-06 3e-06 -21.226286 2.451696 -3.594 -1e-06 -7e-06 -0.0 -1.362681 2.240798 -0.746324 -21.334913 0.584908 3.008324 -13.821213 -3e-06 3e-06 -23.887167 -0.249079 -0.839482 -0.851312 0.272431 0.040741 -0.294025 1.679687 0.833255 -14.218207 0.093214 1.300581 -34.212048 -0.287565 0.967172 -20.033211 0.964535 1.212846 0.0 2e-06 -1e-06 -3.440389 0.788233 0.501656 -15.928185 -3.167311 2.999708 -6.338826 -2e-06 2e-06 -18.123444 3.648181 -4.905669 -6e-06 0.0 -2e-06 -0.159061 1.301569 1.06397 -10.65945 59.196655 2.468143 -0.515702 1.881234 0.002826 1.245872 1.270786 9.00484 2.243541 -5.255037 -3.180157 14.282887 -0.826595 6.952502 -2e-06 -12.690604 -0.0 -0.069229 0.282937 -0.383641 1.665666 -1.955921 -2.878299 4.727798 -4.170588 4.993923 11.020522 4e-06 -0.0 12.109048 -3.735713 -2.866782 -1e-06 -1e-06 -1e-06 1.291985 -1.928549 -1.498088 14.800125 0.567468 3.865608 14.242571 -1.341738 -6.660656 19.631968 0.143925 -0.648242 0.107245 0.046796 0.390661 0.353029 -1.511149 -0.031939 20.222788 3.684311 2.316632 18.78727 5e-06 2e-06 10.751626 -0.479868 1.397906 -1e-06 -0.0 0.0 3.273806 0.305946 -0.58011 21.486809 11.830376 2.266135 8.162926 1e-06 0.0 18.39908 -3.798986 -4.940573 2e-06 2e-06 1e-06 77.595963 -24.970524 14.579341 3.322722 -33.140614 -9.624009 -5.847491 -4.850585 -1.617266 -0.140625 -0.368338 -3.343601 -1e-06 -1e-06 2e-06 -22.55584 -4.111506 -3.521201 99.658737 -34.082855 21.108938 -0.775168 0.073108 -3.35916 -0.005749 -0.005485 0.173921 0.0 1e-06 -1e-06 
0.0 0.0 0.0 0.0 -0.0 0.0 4.33491 100.0 171.320114 0.0 -0.0 0.0 0.0 -0.0 0.0 0.0 -0.0 0.0 -6.1e-05 45.89996 78.299873 0.0 -0.0 0.0 0.0 0.0 0.0 -0.0 0.0 0.0 7.7e-05 -2.2e-05 7e-06 0.0 -0.0 0.0 0.0 -0.0 0.0 0.0 -0.0 0.0 0.0 -0.0 0.0 28.802683 -10.551089 -20.602297 1.359553 1.248425 0.014994 0.0 -0.0 1e-06 -5.882107 9.861285 0.702589 -10.936873 -0.360576 7.156209 1e-06 8.774825 -1e-06 0.0 -0.0 -1e-06 -1.844033 2.498504 -2.507279 -10.163602 4.678946 4.621112 -20.976027 -4e-06 4e-06 -21.226292 2.451696 -3.594002 0.0 -5e-06 1e-06 -1.362682 2.240799 -0.746324 -21.334919 0.584908 3.008327 -13.821215 -2e-06 4e-06 -23.887178 -0.24908 -0.83948 0.0 0.0 0.0 -0.294024 1.679687 0.833255 -14.218211 0.093214 1.300583 -34.212055 -0.287565 0.967174 -20.033215 0.964538 1.212847 0.0 1e-06 0.0 -3.440389 0.788234 0.501656 -15.928189 -3.16731 2.999711 -6.338827 -1e-06 2e-06 -18.123453 3.648181 -4.905671 -6e-06 0.0 -3e-06 0.0 -0.0 0.0 -18.723444 56.193546 -9.541156 -0.33556 1.629099 -0.036171 0.0 0.0 1e-06 2.24354 -5.255035 -3.180157 14.282892 -0.826596 6.952505 -2e-06 -12.690603 -1e-06 -0.0 0.0 -1e-06 1.665667 -1.955921 -2.878298 4.727798 -4.170587 4.993924 11.020526 3e-06 -0.0 12.109052 -3.735715 -2.866783 0.0 -0.0 -1e-06 1.291986 -1.92855 -1.498089 14.800131 0.56747 3.865609 14.242568 -1.341734 -6.660654 19.631968 0.143922 -0.648243 -1e-06 -1e-06 -0.0 0.353029 -1.51115 -0.03194 20.22279 3.684311 2.316633 18.787273 5e-06 2e-06 10.751629 -0.479868 1.397907 -0.0 -1e-06 2e-06 3.273807 0.305947 -0.580109 21.486816 11.830374 2.266134 8.162928 2e-06 -0.0 18.399086 -3.798986 -4.940574 3e-06 0.0 -0.0 76.319939 -26.340609 14.222979 0.109801 -33.754066 -2.825401 -0.0 -0.0 -0.0 0.0 1e-06 -0.0 -0.0 -0.0 2e-06 -21.210516 -1.693347 -4.131108 102.514374 -34.829235 20.626646 0.0 0.0 -0.0 0.0 0.0 -0.0 0.0 1e-06 -1e-06 
